<?xml version="1.0" encoding="UTF-8"?>
<svg xmlns="http://www.w3.org/2000/svg" version="1.1" viewBox="0 0 4000 4000">
  <!-- Generator: Adobe Illustrator 30.1.0, SVG Export Plug-In . SVG Version: 2.1.1 Build 136)  -->
  <defs>
    <style>
      .st0 {
        fill: #fec950;
      }

      .st0, .st1, .st2, .st3, .st4, .st5, .st6 {
        fill-rule: evenodd;
      }

      .st1 {
        fill: #fec851;
      }

      .st2 {
        fill: #fec74f;
      }

      .st3 {
        fill: #f3b244;
      }

      .st4 {
        fill: #012b46;
      }

      .st5 {
        fill: #fdc44e;
      }

      .st6 {
        fill: #fdc34b;
      }
    </style>
  </defs>
  <g id="Layer_1" shape-rendering="geometricPrecision">
    <g>
      <path class="st4" d="M1503.78,951.59c9.96-78.67,60.89-146.05,137.7-169.77,12.21-3.77,24.52-4.57,37.04-2.09,4.46.89,15.92,6.39,19.69,4.71,9-20.17,24.27-41.36,43.04-53.47,14.88-9.59,34.01-12.98,51-16.79,25.02-5.61,50.13-10.84,75.13-16.56,36.9-8.45,74.01-16.17,111.07-23.87,24.34-5.05,48.54-11.53,73.58-11.48,44.74.09,90.57,17.57,123.23,48.2,15.12,14.17,28.51,30.36,39.46,47.95,12.16,19.54,24.79,44.55,27.29,67.74,23.07-4.37,45.22-10.39,69.01-7.54,71,8.53,125.4,56.72,147.08,124.07,7.63,23.69,7.25,48.67,7.33,73.23.06,18.73.4,37.67-.74,56.33-.27,4.39,1.84,13.49-.07,17.29-18.59-16.64-34.11-36.36-54.44-51.2-8.54-6.23-16.84-12.78-25.91-18.25-4.95-2.98-12.98-5.59-16.54-10.06.21-14.49,2.7-29.95-2.09-44.02-9.96-29.31-40.91-50.43-71.25-52.64-19.79-1.45-42.21,7.42-61.61,11.15-43.85,8.43-87.55,17.76-131.27,26.84-58.1,12.07-116.03,25.8-174.31,36.88-19.23,3.65-41.32,4.98-59.54,12.29-20.47,8.2-37.22,24.76-47.25,44.27-12,23.34-10.71,46.91-10.74,72.4-.03,31.9,0,63.8-.02,95.7-.02,31.25.04,62.5-.07,93.75-.07,18.43-2.2,38.33,2.04,56.4,9.14,38.97,40.11,65.79,79.87,68.89,13.27,1.04,27.63-2.26,40.37-5.67,3.96,3.82,6.58,10.28,9.28,15.1,5.52,9.88,11.56,19.48,17.87,28.88,15.37,22.89,35.13,43.64,55.81,61.8,16.18,14.2,33.93,25.99,53.09,35.76,3.31,1.69,18.08,6,18.32,9.73-17.91,7.07-38.18,9.77-56.93,13.95-29.34,6.54-58.7,13.05-88.12,19.26-47.09,9.94-94.32,19.2-141.4,29.22-31.02,6.6-63.01,16.61-94.77,18.49-56.97,3.38-115.75-19.94-153.39-62.91-21.96-25.07-38.89-55.13-45.32-88.04-3.93-20.14-3.46-40.41-3.34-60.83.14-23.89.19-47.78.26-71.68.26-93.1.12-186.2.09-279.3-.02-47.7-3.02-96.55.46-144.12ZM1599.51,961.43c-3.02,40.46-.23,82.02-.32,122.6-.2,85.93.05,171.86-.21,257.79-.11,35.16.02,70.32.21,105.48.1,19.18-2.02,40.39,6.66,58.14,4.97,10.16,10.72,20.29,18.49,28.61,43.8,46.88,109.71,23.07,163.16,11.46,20.54-4.46,41.29-8.11,61.66-13.27,4.52-1.15,8.98-1.68,13.59-2.33,1.26-.18,4.72-.25,4.39-1.97-9.62-3.87-20.77-5.67-30.71-9.25-19.36-6.97-38.23-17.78-54.42-30.41-34.63-27.02-62.33-71.8-69.02-115.43-4.22-27.48-1.81-55.53-1.8-83.2.02-36-.09-72.01.03-108.01.13-37.71-3.43-77.39,1.95-114.79,6.04-42.02,26.62-82.67,56.46-112.87,48.94-49.52,117.81-55.45,182.58-69.02,43.76-9.16,87.51-18.41,131.24-27.72,21.22-4.52,42.64-11.31,64.17-14-1.26-8.91-7.41-19.89-11.77-27.67-16.45-29.41-43.08-53.59-77.73-57.69-17.31-2.05-37.3,4.93-54.2,8.37-39.45,8.04-78.9,16.58-118.09,25.78-20.48,4.8-41.21,9.03-61.81,13.24-9.63,1.97-23.03,2.87-31.3,8.59-12.97,8.98-17.17,33.32-19.42,47.63-.85,5.42-.71,15.88-4.24,20.15-19.63-1.77-38.87-8.45-58.52-10.47-31.47-3.24-61.06,4.21-83.93,26.91-7.07,7.02-12.99,16.18-17.43,25.07-6.29,12.61-7.06,24.82-9.68,38.27Z"/>
      <path class="st6" d="M1905.82,1767.71c14.04-27.26,32.88-52.89,49.38-78.72,6.29-9.84,12.97-23.7,26.55-22.91,13.05.76,22.96,9.4,19.18,22.76-2.96,10.46-11.58,20.23-17.01,29.57-9.13,15.71-18.11,31.52-27.19,47.27-5.02,8.72-9.91,18.28-17.61,25-3.17-.28-6.63-3.34-9.36-4.9-7.79-4.46-18.81-9.25-25.25-15.28.43-.93.87-1.85,1.3-2.78Z"/>
      <path class="st3" d="M2361.85,1081.78c-4.06,1.36-12.9-2.63-17.16-3.37-13.31-2.32-27.19-3.56-40.68-4.5-32.23-2.25-67.26,3.4-97.19,15.53-60.65,24.57-106.14,72.14-137.9,128.18-13.71,24.2-24.75,49.85-30.29,77.25-8.36,41.31-4.62,84.29,6.51,124.69,7,25.44,21.33,48.1,36.28,69.52,5.05,7.25,12.05,12.77,16.26,20.6-17.41-9.7-32.76-23.14-47.73-36.14-30.77-26.72-55.5-62.44-69.05-100.93-28.12-79.87-2.2-174.29,47.36-240.15,49.59-65.9,136.71-116.4,221.61-103,21.53,3.4,41.62,14.74,61.15,23.9,16.2,7.6,37.77,16,50.84,28.44Z"/>
      <path class="st0" d="M2361.85,1081.78c20.58,11.45,40.88,28.01,56.77,45.34,13.03,14.21,24.77,30.21,33.24,47.58,66.55,136.41-21.71,309.92-159.2,360.51-42.39,15.6-90.16,18.6-133.34,4.08-21.93-7.38-41.25-19.12-61.65-29.64-4.21-7.83-11.21-13.35-16.26-20.6-14.95-21.42-29.27-44.08-36.28-69.52-11.13-40.41-14.86-83.38-6.51-124.69,5.54-27.39,16.57-53.04,30.29-77.25,31.76-56.04,77.25-103.6,137.9-128.18,29.93-12.13,64.96-17.78,97.19-15.53,13.49.94,27.37,2.18,40.68,4.5,4.26.74,13.1,4.73,17.16,3.37ZM2128.64,1330.47c-4.78,41.55,9.23,96.91,51.92,114.12,11.89,4.79,25.3,6.61,38.05,6.04,14.12-.63,27.8-3.97,40.91-9.13,61.51-24.24,109-88.47,116.36-153.77,2.04-18.11,2.66-36.69-2.14-54.43-3.03-11.19-8.03-21.84-14.3-31.57-27.73-43.05-85.49-40.11-126.86-22.32-58.57,25.18-96.85,89.52-103.93,151.06Z"/>
      <path class="st2" d="M2183.29,1668.36c3.23-15.52,30.65-20.35,38.21-5.36,4.64,9.18,3.78,24.11,4.97,34.29,2.63,22.53,5.53,45.01,6.82,67.65.47,8.23,2.86,20.63-.16,28.44-11.48,4.06-31.23,3.3-42.61-.75-5.26-7.99-3.59-25.5-3.98-35.01-1.2-29.23-5.86-60.12-3.25-89.27Z"/>
      <path class="st1" d="M2388.4,1580.45c2.14-11.03,19.46-26.11,30.8-18.72,16.63,10.83,28.27,29.99,41.16,44.67,13.36,15.21,30.46,30.63,38.21,49.74-2.9,9.77-12.87,17.88-21.55,22.36-3.77,1.95-9.11,3.95-13.16,1.69-7.36-4.1-11.43-12.16-16.63-18.42-12.74-15.32-24.41-31.53-37.07-46.91-7.39-8.98-21.79-22.26-21.76-34.42Z"/>
      <path class="st5" d="M2534.83,1328.35c6.41-14.1,16.72-12.04,30.03-11.48,21.61.91,42.81,5.06,64.16,8.07,7.24,1.02,14.48,2.32,21.65,3.78,2.66.54,6.44.67,8.27,2.71-.09,10.54-.64,21.03-1.41,31.54-.24,3.24.35,9.18-2.35,11.47-29.75-.26-59.16-7.48-88.19-14.06-9.16-2.08-26.02-4.67-32.22-12.37-2.45-5.79-1.42-13.71.06-19.67Z"/>
    </g>
  </g>
</svg>