<?xml version="1.0" encoding="UTF-8"?>
<svg xmlns="http://www.w3.org/2000/svg" version="1.1" viewBox="0 0 4000 4000">
  <!-- Generator: Adobe Illustrator 30.1.0, SVG Export Plug-In . SVG Version: 2.1.1 Build 136)  -->
  <defs>
    <style>
      .st0 {
        fill: #012c47;
      }

      .st0, .st1, .st2, .st3, .st4, .st5, .st6, .st7, .st8, .st9, .st10, .st11 {
        fill-rule: evenodd;
      }

      .st1 {
        fill: #fec950;
      }

      .st2 {
        fill: #fec851;
      }

      .st3 {
        fill: #012b47;
      }

      .st4 {
        fill: #fec74f;
      }

      .st5 {
        fill: #f3b244;
      }

      .st6 {
        fill: #012b46;
      }

      .st7 {
        fill: #012c48;
      }

      .st8 {
        fill: #fcc64e;
      }

      .st9 {
        fill: #fdc44e;
      }

      .st10 {
        fill: #012a45;
      }

      .st11 {
        fill: #fdc34b;
      }
    </style>
  </defs>
  <g id="Layer_1" shape-rendering="geometricPrecision">
    <path class="st6" d="M778.86,1876.43c30.34-8.28,59.9-18.71,89.38-29.63,12.72-4.71,29.02-15.64,42.75-14.14,1.31,11.35.37,23.12.52,34.55.38,29.29-.21,58.59-.27,87.88-.14,80.73-.27,161.46-.09,242.2.07,31.64,1.02,63.37.35,95-.2,9.52-.32,19.04.03,28.56.14,3.98-.3,9.02,1.66,12.63,8.9,16.41,31.91,10.72,45.11,19.11.92,6.66.3,13.35.05,20.04-15.64-2.01-32.45-.66-48.21-.62-42.29.11-85.75,3.07-127.91.32-.19-5.88-2.11-15.43.25-20.86,13.36-1.66,32.8-4.32,41.21-16.5,4.04-5.85,2.9-16.73,3-23.5.25-18.02.2-36.03.18-54.05-.1-89.05.17-178.11.19-267.17,0-18.56.18-37.14-.11-55.7-.12-7.55.89-17.95-3.41-24.59-7.94-12.26-29.36-15.21-42.66-15.43-2.49-4.48-1.81-12.89-2.03-18.1Z"/>
    <path class="st3" d="M987.67,2058.15c2.3-3,7.27-3.36,10.77-4.56,8.22-2.82,16.38-5.81,24.56-8.73,31.95-11.41,63.48-28.04,96.84-34.63,3.37,27.66.32,57.6.15,85.49-.31,50.78,0,101.57,0,152.34,0,20.83-.28,41.66-.27,62.48,0,7.61-1.98,18.99,2.77,25.5,9.96,13.66,29.27,9.12,42.79,14.32.77,7.41.28,14.63.1,22.05-30.67-2.36-62.34-.21-93.11-.21-27.72,0-56.71-2.3-84.29.66-.42-6.83-.43-13.91.55-20.68,3.06-2.57,8.35-2.14,12.2-2.85,10.06-1.87,26.56-4.45,30.7-15.64,1.74-4.7,1.23-9.92,1.77-14.8,1.57-14.29.75-29.1.82-43.46.21-40.37.15-80.73.23-121.1.02-12.37,0-24.74.02-37.11,0-8.43.75-17.19-3.23-24.91-7.39-14.33-27.51-16.41-41.75-18.08-1.67-5.17-1.16-10.7-1.62-16.06Z"/>
    <path class="st6" d="M1020.98,1886.98c1.57-6.93,4.85-13.84,9.11-19.5,27.71-36.8,91.24-23.95,98.01,23.43.87,6.14.76,13.12-.59,19.18-12.31,55.42-96.29,54.87-106.83-1.2-1.33-7.07-1.29-14.88.3-21.9Z"/>
    <path class="st10" d="M1075.24,2901.5c5.18-.71,17.93-4.44,22.19-1.34,8.6,31.79,18.23,67.95,47.28,87.57,32.79,22.14,92.76,19.61,103.39-26.05,9.59-41.19-30.75-59.49-61.4-73.63-41.67-19.23-93.12-40.76-106.32-89.74-2.7-10-3.52-20.26-3.25-30.6.28-10.71,2.21-21.35,6.47-31.25,19.93-46.26,65.7-68.71,114.68-67.48,17.76.45,34.77,3.65,51.88,8.28,7.55,2.04,14,6.4,18.9-.83,8.82,1.01,20.98-1.73,29.24,1.43,1.21,22.35.71,44.88,1.45,67.27.41,12.81,2.82,27,1.59,39.68-7.31,1.34-16.37-.09-23.87-.1-4.08-10.28-5.54-21.54-9.48-31.9-9.14-24.05-23.59-40.88-47.77-50.51-35.64-14.19-85.72,10.32-73.05,53.45,7.09,24.14,30.25,35.61,51.05,46.15,38.03,19.27,81.59,32.1,107.79,68.13,26.14,35.95,19.02,88.18-9.63,120.5-13.31,15.02-31.13,25.71-50,32.18-32.57,11.18-69.3,11.93-102.58,3.16-10.52-2.77-20.04-8.57-30.16-11.5-10.71,4.97-24.48,2.4-36,1.5-.15-22.29-.16-44.57-.97-66.85-.58-15.8-2.41-31.68-1.41-47.5Z"/>
    <path class="st6" d="M1187.17,2447.59c4.42-15.72,11.47-31.05,23.68-42.38,12.57-11.68,27.97-18.49,41.55-28.48-5.84-8.2-19.49-12.13-26.76-19.71-21.43-22.33-20.32-55.55-3-79.96,8.24-11.6,19.29-20.47,30.71-28.73,3.13-2.26,11.6-7.34,11.75-11.51-9.29-3.5-19.32-13.54-26.54-20.3-44.73-41.89-48.34-113.07-8.91-160.07,47.04-56.06,142.46-62.97,204-29.64,2.69-1.63,4.37-4.88,7.25-6.62,17.66-10.66,37.15-18.86,56.91-24.68,9.94-2.93,20.59-5.78,31.05-4.56,22.24,2.59,22.16,21.87,21.67,40.26-.21,8.02-1.82,20.52-8.75,25.94-5.93,4.64-17.51,1.91-23.97.34-15.08-3.66-32.12-9.88-46.54-1.2.73,5.68,5.37,10,8.19,14.83,4.99,8.56,8.8,17.57,11.46,27.11,12.7,45.46-4.24,97.48-42.22,125.82-28.73,21.44-66.5,33.11-102.39,32.28-9.77-.23-19.64-.72-29.32-2.18-4.97-.75-10.86-3.01-15.89-2.18-13.27,2.19-28.21,20.96-25.7,34.43,2.1,11.21,11.24,17.2,21.4,20.59,18.72,6.23,39.49,6.62,59,7.84,41.49,2.6,84.81,0,125.09,11.91,27.34,8.07,50.35,25.64,56.32,54.83,2.28,11.14,2.18,22.97,1.13,34.25-1.3,14.02-5.72,27.76-12.13,40.26-16.07,31.31-46.79,53.04-78.97,65.46-52.91,20.41-111.8,22.05-167.61,14.92-44.97-5.75-102.74-34.51-92.47-88.88ZM1257.7,2430.14c-2.27,28.74,19.7,47.77,44.4,57.15,42.53,16.14,104.94,17.41,143.8-8.63,17.82-11.94,38.36-41.77,19.01-61.45-11.25-11.44-27.82-13.77-42.94-15.76-17.75-2.34-35.66-2.99-53.54-3.9-27.92-1.43-55.6-6.46-83.41-8.1-17.02,4.42-24.34,25.84-27.31,40.69ZM1290.85,2103.96c-4.15,35.92-.47,81.98,25.69,109.6,19.43,20.52,52.95,17.49,71.05-2.9,13.93-15.7,18.31-36.34,20.95-56.51,4.09-31.39.36-74.91-22.32-99.14-20.18-21.55-56.86-21.64-76.82.2-11.8,12.91-16.59,31.8-18.55,48.75Z"/>
    <path class="st6" d="M1333.93,2705.5c.58-3.24.54-6.75,1.84-9.77,8.6-5.16,18.46-8.28,27.25-13.22,19.56-11,39.07-25.57,54-42.42,9.35-10.56,18.09-21.74,25.09-34,3.54-6.2,5.35-14.25,9.93-19.69,7.39-.86,14.94-1.04,22.37-.75-.91,31.73,1.15,63.79-1.05,95.45,30.61,3.18,62.44-.54,93.21.52-.32,9.42-.57,18.89-.32,28.36.05,1.79.88,8.43-.26,9.68-30.56.57-61.58.58-92.14.04.95,19.73-.19,39.85-.18,59.63,0,42.09.06,84.19.09,126.28.02,22.7-5.03,54.72,18.28,68.16,16.69,9.62,38.12,6.38,55.22-.17,7.14-2.73,17.11-10.95,24.96-9.09,1.4,5.55,3.26,11.03,2.2,16.86-3.41,18.78-25.47,29.48-40.84,36.76-40.99,19.41-101.83,19.35-129.68-22.29-16.59-24.81-13.7-57.54-13.56-85.97.21-42.88.6-85.75.64-128.62,0-13.31.11-26.62.1-39.93,0-6.72,1.01-14.49-.51-21.05-3.17-2.69-11.12-.82-15.32-1.14-13.87-1.05-28-1.09-41.89-.36-1.53-3.91.09-9.17.59-13.24Z"/>
    <path class="st6" d="M1503.78,951.59c9.96-78.67,60.89-146.05,137.7-169.77,12.21-3.77,24.52-4.57,37.04-2.09,4.46.89,15.92,6.39,19.69,4.71,9-20.17,24.27-41.36,43.04-53.47,14.88-9.59,34.01-12.98,51-16.79,25.02-5.61,50.13-10.84,75.13-16.56,36.9-8.45,74.01-16.17,111.07-23.87,24.34-5.05,48.54-11.53,73.58-11.48,44.74.09,90.57,17.57,123.23,48.2,15.12,14.17,28.51,30.36,39.46,47.95,12.16,19.54,24.79,44.55,27.29,67.74,23.07-4.37,45.22-10.39,69.01-7.54,71,8.53,125.4,56.72,147.08,124.07,7.63,23.69,7.25,48.67,7.33,73.23.06,18.73.4,37.67-.74,56.33-.27,4.39,1.84,13.49-.07,17.29-18.59-16.64-34.11-36.36-54.44-51.2-8.54-6.23-16.84-12.78-25.91-18.25-4.95-2.98-12.98-5.59-16.54-10.06.21-14.49,2.7-29.95-2.09-44.02-9.96-29.31-40.91-50.43-71.25-52.64-19.79-1.45-42.21,7.42-61.61,11.15-43.85,8.43-87.55,17.76-131.27,26.84-58.1,12.07-116.03,25.8-174.31,36.88-19.23,3.65-41.32,4.98-59.54,12.29-20.47,8.2-37.22,24.76-47.25,44.27-12,23.34-10.71,46.91-10.74,72.4-.03,31.9,0,63.8-.02,95.7-.02,31.25.04,62.5-.07,93.75-.07,18.43-2.2,38.33,2.04,56.4,9.14,38.97,40.11,65.79,79.87,68.89,13.27,1.04,27.63-2.26,40.37-5.67,3.96,3.82,6.58,10.28,9.28,15.1,5.52,9.88,11.56,19.48,17.87,28.88,15.37,22.89,35.13,43.64,55.81,61.8,16.18,14.2,33.93,25.99,53.09,35.76,3.31,1.69,18.08,6,18.32,9.73-17.91,7.07-38.18,9.77-56.93,13.95-29.34,6.54-58.7,13.05-88.12,19.26-47.09,9.94-94.32,19.2-141.4,29.22-31.02,6.6-63.01,16.61-94.77,18.49-56.97,3.38-115.75-19.94-153.39-62.91-21.96-25.07-38.89-55.13-45.32-88.04-3.93-20.14-3.46-40.41-3.34-60.83.14-23.89.19-47.78.26-71.68.26-93.1.12-186.2.09-279.3-.02-47.7-3.02-96.55.46-144.12ZM1599.51,961.43c-3.02,40.46-.23,82.02-.32,122.6-.2,85.93.05,171.86-.21,257.79-.11,35.16.02,70.32.21,105.48.1,19.18-2.02,40.39,6.66,58.14,4.97,10.16,10.72,20.29,18.49,28.61,43.8,46.88,109.71,23.07,163.16,11.46,20.54-4.46,41.29-8.11,61.66-13.27,4.52-1.15,8.98-1.68,13.59-2.33,1.26-.18,4.72-.25,4.39-1.97-9.62-3.87-20.77-5.67-30.71-9.25-19.36-6.97-38.23-17.78-54.42-30.41-34.63-27.02-62.33-71.8-69.02-115.43-4.22-27.48-1.81-55.53-1.8-83.2.02-36-.09-72.01.03-108.01.13-37.71-3.43-77.39,1.95-114.79,6.04-42.02,26.62-82.67,56.46-112.87,48.94-49.52,117.81-55.45,182.58-69.02,43.76-9.16,87.51-18.41,131.24-27.72,21.22-4.52,42.64-11.31,64.17-14-1.26-8.91-7.41-19.89-11.77-27.67-16.45-29.41-43.08-53.59-77.73-57.69-17.31-2.05-37.3,4.93-54.2,8.37-39.45,8.04-78.9,16.58-118.09,25.78-20.48,4.8-41.21,9.03-61.81,13.24-9.63,1.97-23.03,2.87-31.3,8.59-12.97,8.98-17.17,33.32-19.42,47.63-.85,5.42-.71,15.88-4.24,20.15-19.63-1.77-38.87-8.45-58.52-10.47-31.47-3.24-61.06,4.21-83.93,26.91-7.07,7.02-12.99,16.18-17.43,25.07-6.29,12.61-7.06,24.82-9.68,38.27Z"/>
    <path class="st3" d="M1563.75,1876.44c26.93-6.65,53.78-15.84,79.7-25.72,17.35-6.62,34.63-16.11,53.11-18.66-.52,57.87.1,115.88-.06,173.8-.06,22.26,1.5,45.16.23,67.33.15.95,4.89-3.96,5.53-4.58,3.96-3.8,8.16-7.23,12.33-10.79,12.79-10.92,25.11-21.3,39.59-30.02,39.33-23.66,98.09-30.86,132.75,5.36,31.57,32.98,30.55,75.3,30.16,117.88-.33,36.24-.1,72.5-.02,108.74.04,17.79-.57,35.67.19,53.45.28,6.47-.66,16.59,3.27,22.14,10.21,14.46,28.02,9.59,41.5,16.52-.13,6.93.04,14,.13,20.93-38.01.58-76.38-.35-114.49-.44-19.48-.04-41.4,2.77-60.61-.36.2-6.47.5-12.91.96-19.38,13.71-3.34,34.2-4.2,42.26-17.99,3.11-5.32,1.42-16.12,1.43-22.18.04-16.93.06-33.86.07-50.78.02-33.2.03-66.41.07-99.61.02-17.86,2.63-38.37-2.98-55.57-7.98-24.43-32.22-34.68-56.34-33.72-22.98.92-45.71,12.3-62.25,28-4.23,4.02-10.59,9.35-12.78,14.88-1.52,3.84-.71,9.16-.75,13.23-.1,9.77-.04,19.55,0,29.32.14,31.91.16,63.82.16,95.73,0,19.32-.09,38.65.06,57.97.05,6.36-1.47,18.34,2.39,23.76,8.8,12.39,31.98,13.52,45.58,15.43,2.18,6.67-1.46,14.54.11,21.12-59.57,2.76-119.51-2.32-179.1.59.15-6.37.3-12.7.67-19.05,3.57-3.76,9.91-3,14.86-3.96,9.88-1.93,26.26-6.74,29.1-18.02,3.09-12.26,1.46-26.67,1.43-39.21-.05-23.3-.11-46.6-.14-69.89-.1-77.47-.68-154.97-.04-232.44.15-17.93.24-35.86.27-53.79.01-8.9,1.21-18.49-4.51-26-9.27-12.18-30.07-14.52-44.3-14.75-.93-6.27-.22-12.51-.59-18.79.35-.16.7-.32,1.06-.48Z"/>
    <path class="st6" d="M1585.35,2700.52c25.85-5.74,51.84-10.11,77.54-16.83,15.64-4.09,32.39-11.73,48.69-11.62,1.15,42.14.25,84.59.31,126.78.04,29.3,0,58.59.08,87.89.06,22.43-3.27,49.46,11.55,68.3,9.39,11.93,23.7,14.96,38.14,15.28,30.31.68,56.84-13.18,76.56-35.54,4.55-5.16,4.02-13.37,4.11-19.88.2-15.25-.11-30.51-.1-45.76.03-31.9.26-63.8.25-95.7,0-11.14,2.9-30.43-3.49-40.23-8.27-12.7-26.58-12.93-39.93-14.23-.8-6.15-1.44-13.29-.4-19.41,14.18-4.29,29.6-4.77,44.05-8.27,26.84-6.5,53.16-14.87,80.13-20.82,1.63,6.96.24,15.67.26,22.86.04,15.63-.04,31.26-.05,46.89-.04,49.43.29,98.85.38,148.27.03,17.34-.09,34.68-.07,52.02,0,7.74-1.12,18.96,2.58,26.04,8.2,15.64,33.09,10.16,45.06,20.12,1.18,3.94,1.79,9.3-1.34,12.52-10.49,4.32-22.69,5.26-33.7,7.94-15.33,3.73-30.45,8.89-45.37,13.95-10.05,3.41-20.02,7.02-30.05,10.48-5.71,1.97-12.1,4.77-18.24,4.45-1.76-19.57-1.51-41.32-.12-60.92-5.18,1.01-10.01,7.11-13.81,10.58-6.4,5.85-14.02,10.7-21.22,15.49-25.3,16.85-52.34,29.42-83.16,30.87-39.13,1.84-77.44-22.69-88.43-60.91-6.66-23.16-5.3-47.34-5.28-71.17.03-33.71.07-67.43.09-101.14,0-14.58.28-29.17.08-43.75-.09-6.48.44-15.76-3.16-21.41-9.66-15.19-27.71-8.96-41.22-14.57-.23-6.18-.27-12.39-.73-18.57Z"/>
    <path class="st11" d="M1905.82,1767.71c14.04-27.26,32.88-52.89,49.38-78.72,6.29-9.84,12.97-23.7,26.55-22.91,13.05.76,22.96,9.4,19.18,22.76-2.96,10.46-11.58,20.23-17.01,29.57-9.13,15.71-18.11,31.52-27.19,47.27-5.02,8.72-9.91,18.28-17.61,25-3.17-.28-6.63-3.34-9.36-4.9-7.79-4.46-18.81-9.25-25.25-15.28.43-.93.87-1.85,1.3-2.78Z"/>
    <path class="st5" d="M2361.85,1081.78c-4.06,1.36-12.9-2.63-17.16-3.37-13.31-2.32-27.19-3.56-40.68-4.5-32.23-2.25-67.26,3.4-97.19,15.53-60.65,24.57-106.14,72.14-137.9,128.18-13.71,24.2-24.75,49.85-30.29,77.25-8.36,41.31-4.62,84.29,6.51,124.69,7,25.44,21.33,48.1,36.28,69.52,5.05,7.25,12.05,12.77,16.26,20.6-17.41-9.7-32.76-23.14-47.73-36.14-30.77-26.72-55.5-62.44-69.05-100.93-28.12-79.87-2.2-174.29,47.36-240.15,49.59-65.9,136.71-116.4,221.61-103,21.53,3.4,41.62,14.74,61.15,23.9,16.2,7.6,37.77,16,50.84,28.44Z"/>
    <path class="st6" d="M1974.52,2045.37c.2-2.49.39-4.95.45-7.45,4.91-5.55,17.42-7.77,24.13-11.21,15.26-7.85,29.45-17.86,42.68-28.77,14.97-12.33,27.97-26.73,38.86-42.76,3.77-5.55,7.6-11.19,10.9-17.04,1.77-3.14,2.38-7.15,5.02-9.71,6.64-.6,13.36-.66,20.03-.84,2.81,9.09.56,21.88.42,31.45-.3,20.62.32,41.23.38,61.81,15.31-1.27,31.32.04,46.7.07,14.82.03,30.12-1.16,44.88.2-.34,12.78,1.26,26.39-.4,39.04-29.79-2.11-60.79.61-90.66.95-2.22,23.58-.95,48.06-.96,71.76-.03,39.53-.14,79.05-.13,118.58.01,21.66-6.95,52.99,13,68.1,15.79,11.96,37.38,8.85,54.68,2.09,7.27-2.84,20.17-15,27.84-8.71,1.69,2.89,1.7,6.71,1.8,9.98.65,21.15-19.15,33.92-36.09,42.59-37.84,19.36-97.98,22.88-128-12.38-22.24-26.12-19.3-64.2-19.17-96.33.27-65.34,2.37-131.1.3-196.38-19.07-1.16-38.36.36-57.39-.92.23-4.71.36-9.42.72-14.12Z"/>
    <path class="st3" d="M1986.27,2857.88c3.56-43.47,10.32-84.86,36.04-121.53,37.49-53.44,110.68-80.91,173.35-59.32,12.9,4.45,23.02,11.99,34,19.7,1.54-30.95.76-62.24.69-93.23-.02-10.44,3.12-27.13-2.8-36.23-10.09-15.48-29.86-15.62-46.11-16.29-1.81-5.02-2.16-13.23-.96-18.47,33.14-5.39,65.75-20.04,97.15-31.49,8.5-3.1,16.95-6.37,25.49-9.38,2.79-.98,8.19-2.95,10.92-1.81,2.19,121.92-.62,243.76-.04,365.68.13,27.34-.07,54.67-.01,82.02.02,7.32.23,14.5.82,21.79.27,3.35-.02,8.07,2.21,10.83,9.97,12.36,32.38,12.52,46.5,15.66.89,5.07.98,10.05-.37,15.03-3.07,2.61-8.23,2.9-12.09,3.53-8.27,1.34-16.59,3.23-24.75,5.19-21.07,5.06-41.74,11.1-62.46,17.41-10.14,3.09-21.73,8.55-32.4,8.67-1.15-11.93-1.67-24.8-1.18-36.79.12-2.93,1.76-12.28-.7-14.3-25.61,21.62-51.87,39.54-85.59,45.61-13.17,2.37-27.8,1.9-40.89-.85-12.61-2.64-24.29-6.05-35.8-12.01-58.09-30.1-83.35-96.64-80.99-159.42ZM2076.06,2818.82c-4.6,39.37-.79,89.02,21.5,122.84,30.04,45.59,96.78,43.2,131.63,4.63,1.91-5.4.99-12.02.92-17.66-.12-10.07.04-20.14.03-30.2-.02-34.86.24-69.72.09-104.58-.05-11.51.47-23,.51-34.51.02-5.05.95-10.96-1.52-15.59-3.51-6.59-9.86-11.91-15.38-16.78-31.63-27.91-82.59-27.14-109.61,6.55-13.76,17.16-20.62,39.11-24.82,60.41-1.61,8.19-1.5,16.82-3.36,24.89Z"/>
    <path class="st1" d="M2361.85,1081.78c20.58,11.45,40.88,28.01,56.77,45.34,13.03,14.21,24.77,30.21,33.24,47.58,66.55,136.41-21.71,309.92-159.2,360.51-42.39,15.6-90.16,18.6-133.34,4.08-21.93-7.38-41.25-19.12-61.65-29.64-4.21-7.83-11.21-13.35-16.26-20.6-14.95-21.42-29.27-44.08-36.28-69.52-11.13-40.41-14.86-83.38-6.51-124.69,5.54-27.39,16.57-53.04,30.29-77.25,31.76-56.04,77.25-103.6,137.9-128.18,29.93-12.13,64.96-17.78,97.19-15.53,13.49.94,27.37,2.18,40.68,4.5,4.26.74,13.1,4.73,17.16,3.37ZM2128.64,1330.47c-4.78,41.55,9.23,96.91,51.92,114.12,11.89,4.79,25.3,6.61,38.05,6.04,14.12-.63,27.8-3.97,40.91-9.13,61.51-24.24,109-88.47,116.36-153.77,2.04-18.11,2.66-36.69-2.14-54.43-3.03-11.19-8.03-21.84-14.3-31.57-27.73-43.05-85.49-40.11-126.86-22.32-58.57,25.18-96.85,89.52-103.93,151.06Z"/>
    <path class="st4" d="M2183.29,1668.36c3.23-15.52,30.65-20.35,38.21-5.36,4.64,9.18,3.78,24.11,4.97,34.29,2.63,22.53,5.53,45.01,6.82,67.65.47,8.23,2.86,20.63-.16,28.44-11.48,4.06-31.23,3.3-42.61-.75-5.26-7.99-3.59-25.5-3.98-35.01-1.2-29.23-5.86-60.12-3.25-89.27Z"/>
    <path class="st7" d="M2238.35,1891.11c.36-4.94.23-9.99.82-14.89,31.66-5.59,62.39-19.69,92.45-30.61,12.63-4.59,27.52-14.58,41.23-14.37-.61,119.32-.67,238.91-.05,358.26.17,33.2-.19,66.41-.14,99.61.02,13.26-3.38,32.79,2.09,45.16,7.42,16.78,32.59,9.89,45.05,17.29,1.46,6.66.24,13.55.97,20.24-5.33,1.77-12.81.4-18.43.37-11.72-.06-23.44.09-35.16.1-41.05.02-82.32-1.13-123.34.64-2.17-4.47-1.71-16.55.21-21,13.77-3.3,30.95-3.46,40.54-15.66,5.23-6.64,3.44-18.49,3.39-26.38-.12-21.25.14-42.5.16-63.75.09-72.27-.23-144.54-.21-216.8,0-23.24.12-46.48.23-69.73.06-12.73,1.53-26.68-.73-39.25-3.73-20.71-30.96-24.67-48.31-26.21-1.09-1.6-.72-.63-.77-3Z"/>
    <path class="st6" d="M2386.57,2717.22c0-.84,0-1.69,0-2.53,14.39-7.96,33.25-10.74,48.71-16.83,14.72-5.8,29.64-11.17,44.27-17.2,12.1-4.99,23.59-10.63,36.77-11.98.38,74.58.59,149.3.1,223.91-.14,21.49-.27,42.98-.04,64.47.1,8.8-1.75,21.32,2.48,29.37,7.17,13.62,31.45,11.34,43.93,14.77-.5,6.71.1,13.98.02,20.77-11.34,3.11-27.55.05-39.36.05-29.95,0-59.89-.02-89.84-.03-10.43,0-20.85.05-31.28.06-3.85,0-10.36,1.23-13.7-.62.2-6.73-.12-13.7.73-20.38,14.08-1.4,34.56-2.9,42.47-16.97,4.29-17.48,2.13-38.41,2.14-56.31.02-37.12-.94-74.31-.54-111.41.16-14.93.84-29.87.75-44.83-.04-6.52,1.11-13.83-1.91-19.84-8.73-17.43-27.12-18.35-43.79-21.34-1.92-3.85-2.12-8.82-1.91-13.11Z"/>
    <path class="st2" d="M2388.4,1580.45c2.14-11.03,19.46-26.11,30.8-18.72,16.63,10.83,28.27,29.99,41.16,44.67,13.36,15.21,30.46,30.63,38.21,49.74-2.9,9.77-12.87,17.88-21.55,22.36-3.77,1.95-9.11,3.95-13.16,1.69-7.36-4.1-11.43-12.16-16.63-18.42-12.74-15.32-24.41-31.53-37.07-46.91-7.39-8.98-21.79-22.26-21.76-34.42Z"/>
    <path class="st6" d="M2419.74,2549.2c.95-7.41,3.09-14.73,7.09-21.07,29.22-46.2,106.86-21.25,99.9,34.4-6.81,54.46-88.83,63.25-105.06,10.09-2.34-7.64-2.94-15.5-1.93-23.42Z"/>
    <path class="st0" d="M2453.03,2285.59c1.56-10.88,2.95-21.41,7.7-31.5,11.19-23.79,32.83-40.07,55.55-51.94,42.24-22.07,89.86-30.53,134.77-45.49,3.21-6.49.83-20.5.76-27.75-.14-15.3-.86-30.74-8.31-44.51-12.82-23.7-44.18-29.18-68.38-23.37-7.14,1.71-16.84,5.1-19.16,13.05-5.43,18.61,2.8,36.33-8.6,54.23-17.46,27.4-67.96,22.36-79.39-7.86-14.39-38.07,15.9-73.4,48.18-88.95,38.57-18.57,82.19-26.36,124.84-23.99,24.64,1.36,50.04,7.96,69.88,23.16,33.86,25.94,34.48,65.59,34.52,104.36.04,39.59-.07,79.17-.15,118.76-.02,12.68-.23,25.37-.16,38.05.04,6.5-.4,14,2.38,20.05,7.42,16.14,26.17,11,37.46,2.75,3.77-2.75,11.5-10.88,16.22-6.35,2.39,5.63,3.59,12.31,2.95,18.42-3.42,11.36-13.71,20.14-22.16,27.82-34.24,31.08-91.16,36.48-118.67-6.34-4.5-7.01-7.48-14.34-8.7-22.62-23,21.81-51.47,45.6-83.17,52.57-44.44,9.77-98.12-7.55-113.65-54.05-4.03-12.05-5.61-25.85-4.69-38.51ZM2546.62,2266.07c-.65,5.82-.38,11.66.74,17.41.84,4.32,2.82,8.21,5.05,11.96,19.07,31.98,67.28,16.48,88.87-3.61,12.66-11.78,10.57-24.32,10.57-40.59,0-16.41.67-32.85.76-49.23-37.7,8.7-97.04,19.23-106,64.05Z"/>
    <path class="st9" d="M2534.83,1328.35c6.41-14.1,16.72-12.04,30.03-11.48,21.61.91,42.81,5.06,64.16,8.07,7.24,1.02,14.48,2.32,21.65,3.78,2.66.54,6.44.67,8.27,2.71-.09,10.54-.64,21.03-1.41,31.54-.24,3.24.35,9.18-2.35,11.47-29.75-.26-59.16-7.48-88.19-14.06-9.16-2.08-26.02-4.67-32.22-12.37-2.45-5.79-1.42-13.71.06-19.67Z"/>
    <path class="st6" d="M2579.9,2840.28c3.21-53.23,29.17-107.79,73.98-138.56,71.08-48.82,175.42-42.85,233.37,24.18,12.86,14.87,22.57,31.91,29.51,50.25,10,26.43,13.2,53.79,11.54,81.9-3.69,62.23-35.21,120.26-89.75,151.77-82.47,47.65-205.21,16.06-243.72-74.17-12.86-30.14-16.89-62.79-14.92-95.37ZM2669.77,2812.96c-1.11,12.26-1.03,24.61-.88,36.91.52,43.57,6.77,95.95,38.16,129.18,27.82,29.46,75.98,28.77,102.45-1.82,18.17-21,26.18-51.71,28.94-78.74,4.32-42.39,3.02-89.05-12.11-129.34-5.17-13.75-10.61-28.22-19.85-39.86-30.14-37.96-87.99-38.15-115.28,3.18-15.14,22.92-19.01,53.83-21.43,80.49Z"/>
    <path class="st0" d="M2814.06,1879.34c.35-2.26.19-1,.43-3.78,2.5-2.85,6.81-3.41,10.39-4.24,7.97-1.85,15.99-3.82,23.8-6.27,23.83-7.46,47.24-16.23,70.66-24.86,10.08-3.71,21.67-11.05,32.7-9.36,2.47,4.72.58,13.41.57,18.77-.02,14.98-.05,29.95-.12,44.93-.16,34.5-.15,69.01.02,103.51.1,20.19-1.65,41.18,2.23,61.05,3.52-1.37,5.94-5.27,8.52-7.94,5.38-5.57,10.75-10.96,16.77-15.85,20.31-16.49,44.7-26.36,70.84-28.31,14.12-1.06,28.79-.29,42.57,3.02,10.71,2.57,20.98,6.96,30.54,12.4,75.7,43.12,89.61,145.83,70.13,223.27-20.99,83.49-101.25,153.32-190.77,130.53-20.34-5.18-37.26-16.34-53.27-29.46-4.98-4.08-9.5-8.73-14.31-13.01-1.36-1.21-2.24-3.92-4.04-3.67-1.44.21-.23,2.91-.54,4.32-.49,2.22-2.08,4.61-2.93,6.75-3.02,7.61-6.81,14.91-10.26,22.33-1.32,2.84-2.13,6.48-4.29,8.81-15.37,5.31-36.6,1.03-52.63.82-3.85-37.05-.52-76.07-.55-113.32-.07-76.18.25-152.35.13-228.52-.04-29.63-.72-59.34.13-88.96.3-10.46,3-27.07-4.71-35.5-10.73-11.73-28.05-8.52-41.55-13.66-.65-4.64-.45-9.14-.46-13.8ZM2952.98,2127.45c-2.29,34.66-.21,70.1-.22,104.84-.01,21.75-1.84,45.22,10.71,64.08,26.3,39.55,82.99,42.19,112.26,4.97,19.73-25.1,25.34-59.61,28.1-90.48,3.77-42.22-6.05-99.11-45.21-123.24-29.74-18.32-67.29-14.62-91.46,11.29-7.66,8.21-13.42,17.12-14.18,28.54Z"/>
    <path class="st8" d="M3261.28,2314.79c8.3-54.08,93.03-52.54,103.34-.35,1.11,5.64,1.69,11.38.73,17.09-3.22,19.28-17.43,36.21-36.34,41.95-28.09,8.53-59.49-9.21-66.72-37.23-1.79-6.95-2.1-14.36-1.01-21.46Z"/>
  </g>
</svg>